G04 Gerber file generated by Gerbonara*
%MOMM*%
%FSLAX45Y45*%
%IPPOS*%
G75
%LPD*%
%ADD10C,0.15*%
%ADD11C,0.3*%
D10*
X002125000Y002975000D02*
X002175000Y002975000D01*
X002125000Y002975000D02*
X002125000Y002925000D01*
X002125000Y002625000D02*
X002175000Y002625000D01*
X002125000Y002625000D02*
X002125000Y002675000D01*
X002475000Y002975000D02*
X002425000Y002975000D01*
X002475000Y002975000D02*
X002475000Y002925000D01*
X002475000Y002625000D02*
X002425000Y002625000D01*
X002475000Y002625000D02*
X002475000Y002675000D01*
D11*
X002535000Y002930000D02*
X002535000Y002670000D01*
D10*
X003625000Y002975000D02*
X003675000Y002975000D01*
X003625000Y002975000D02*
X003625000Y002925000D01*
X003625000Y002625000D02*
X003675000Y002625000D01*
X003625000Y002625000D02*
X003625000Y002675000D01*
X003975000Y002975000D02*
X003925000Y002975000D01*
X003975000Y002975000D02*
X003975000Y002925000D01*
X003975000Y002625000D02*
X003925000Y002625000D01*
X003975000Y002625000D02*
X003975000Y002675000D01*
D11*
X004035000Y002930000D02*
X004035000Y002670000D01*
D10*
X005125000Y002975000D02*
X005175000Y002975000D01*
X005125000Y002975000D02*
X005125000Y002925000D01*
X005125000Y002625000D02*
X005175000Y002625000D01*
X005125000Y002625000D02*
X005125000Y002675000D01*
X005475000Y002975000D02*
X005425000Y002975000D01*
X005475000Y002975000D02*
X005475000Y002925000D01*
X005475000Y002625000D02*
X005425000Y002625000D01*
X005475000Y002625000D02*
X005475000Y002675000D01*
D11*
X005535000Y002930000D02*
X005535000Y002670000D01*
D10*
X002875000Y001375000D02*
X002925000Y001375000D01*
X002875000Y001375000D02*
X002875000Y001325000D01*
X002875000Y001025000D02*
X002925000Y001025000D01*
X002875000Y001025000D02*
X002875000Y001075000D01*
X003225000Y001375000D02*
X003175000Y001375000D01*
X003225000Y001375000D02*
X003225000Y001325000D01*
X003225000Y001025000D02*
X003175000Y001025000D01*
X003225000Y001025000D02*
X003225000Y001075000D01*
D11*
X003285000Y001330000D02*
X003285000Y001070000D01*
D10*
X004375000Y001375000D02*
X004425000Y001375000D01*
X004375000Y001375000D02*
X004375000Y001325000D01*
X004375000Y001025000D02*
X004425000Y001025000D01*
X004375000Y001025000D02*
X004375000Y001075000D01*
X004725000Y001375000D02*
X004675000Y001375000D01*
X004725000Y001375000D02*
X004725000Y001325000D01*
X004725000Y001025000D02*
X004675000Y001025000D01*
X004725000Y001025000D02*
X004725000Y001075000D01*
D11*
X004785000Y001330000D02*
X004785000Y001070000D01*
D10*
X000817857Y003295000D02*
X000760714Y003145000D01*
X000817857Y003295000D02*
X000875000Y003145000D01*
X000782143Y003195000D02*
X000853571Y003195000D01*
X000975000Y003273571D02*
X000975000Y003145000D01*
X000910714Y003209286D02*
X001039286Y003209286D01*
X006617857Y003295000D02*
X006560714Y003145000D01*
X006617857Y003295000D02*
X006675000Y003145000D01*
X006582143Y003195000D02*
X006653571Y003195000D01*
X006710714Y003209286D02*
X006839286Y003209286D01*
X000760714Y001695000D02*
X000760714Y001545000D01*
X000760714Y001695000D02*
X000825000Y001695000D01*
X000846429Y001687857D01*
X000853571Y001680714D01*
X000860714Y001666429D01*
X000860714Y001652143D01*
X000853571Y001637857D01*
X000846429Y001630714D01*
X000825000Y001623571D01*
X000760714Y001623571D02*
X000825000Y001623571D01*
X000846429Y001616429D01*
X000853571Y001609286D01*
X000860714Y001595000D01*
X000860714Y001573571D01*
X000853571Y001559286D01*
X000846429Y001552143D01*
X000825000Y001545000D01*
X000760714Y001545000D01*
X000975000Y001673571D02*
X000975000Y001545000D01*
X000910714Y001609286D02*
X001039286Y001609286D01*
X006560714Y001695000D02*
X006560714Y001545000D01*
X006560714Y001695000D02*
X006625000Y001695000D01*
X006646429Y001687857D01*
X006653571Y001680714D01*
X006660714Y001666429D01*
X006660714Y001652143D01*
X006653571Y001637857D01*
X006646429Y001630714D01*
X006625000Y001623571D01*
X006560714Y001623571D02*
X006625000Y001623571D01*
X006646429Y001616429D01*
X006653571Y001609286D01*
X006660714Y001595000D01*
X006660714Y001573571D01*
X006653571Y001559286D01*
X006646429Y001552143D01*
X006625000Y001545000D01*
X006560714Y001545000D01*
X006710714Y001609286D02*
X006839286Y001609286D01*
X002086667Y002050000D02*
X002086667Y001910000D01*
X002166667Y001910000D01*
X002200000Y002050000D02*
X002200000Y001910000D01*
X002200000Y002050000D02*
X002286667Y002050000D01*
X002200000Y001983333D02*
X002253333Y001983333D01*
X002200000Y001910000D02*
X002286667Y001910000D01*
X002326667Y002050000D02*
X002326667Y001910000D01*
X002326667Y002050000D02*
X002373333Y002050000D01*
X002393333Y002043333D01*
X002406667Y002030000D01*
X002413333Y002016667D01*
X002420000Y001996667D01*
X002420000Y001963333D01*
X002413333Y001943333D01*
X002406667Y001930000D01*
X002393333Y001916667D01*
X002373333Y001910000D01*
X002326667Y001910000D01*
X002480000Y002023333D02*
X002493333Y002030000D01*
X002513333Y002050000D01*
X002513333Y001910000D01*
X003566667Y002050000D02*
X003566667Y001910000D01*
X003646667Y001910000D01*
X003680000Y002050000D02*
X003680000Y001910000D01*
X003680000Y002050000D02*
X003766667Y002050000D01*
X003680000Y001983333D02*
X003733333Y001983333D01*
X003680000Y001910000D02*
X003766667Y001910000D01*
X003806667Y002050000D02*
X003806667Y001910000D01*
X003806667Y002050000D02*
X003853333Y002050000D01*
X003873333Y002043333D01*
X003886667Y002030000D01*
X003893333Y002016667D01*
X003900000Y001996667D01*
X003900000Y001963333D01*
X003893333Y001943333D01*
X003886667Y001930000D01*
X003873333Y001916667D01*
X003853333Y001910000D01*
X003806667Y001910000D01*
X003946667Y002016667D02*
X003946667Y002023333D01*
X003953333Y002036667D01*
X003960000Y002043333D01*
X003973333Y002050000D01*
X004000000Y002050000D01*
X004013333Y002043333D01*
X004020000Y002036667D01*
X004026667Y002023333D01*
X004026667Y002010000D01*
X004020000Y001996667D01*
X004006667Y001976667D01*
X003940000Y001910000D01*
X004033333Y001910000D01*
X005066667Y002050000D02*
X005066667Y001910000D01*
X005146667Y001910000D01*
X005180000Y002050000D02*
X005180000Y001910000D01*
X005180000Y002050000D02*
X005266667Y002050000D01*
X005180000Y001983333D02*
X005233333Y001983333D01*
X005180000Y001910000D02*
X005266667Y001910000D01*
X005306667Y002050000D02*
X005306667Y001910000D01*
X005306667Y002050000D02*
X005353333Y002050000D01*
X005373333Y002043333D01*
X005386667Y002030000D01*
X005393333Y002016667D01*
X005400000Y001996667D01*
X005400000Y001963333D01*
X005393333Y001943333D01*
X005386667Y001930000D01*
X005373333Y001916667D01*
X005353333Y001910000D01*
X005306667Y001910000D01*
X005453333Y002050000D02*
X005526667Y002050000D01*
X005486667Y001996667D01*
X005506667Y001996667D01*
X005520000Y001990000D01*
X005526667Y001983333D01*
X005533333Y001963333D01*
X005533333Y001950000D01*
X005526667Y001930000D01*
X005513333Y001916667D01*
X005493333Y001910000D01*
X005473333Y001910000D01*
X005453333Y001916667D01*
X005446667Y001923333D01*
X005440000Y001936667D01*
X002813333Y000410000D02*
X002813333Y000270000D01*
X002893333Y000270000D01*
X002926667Y000410000D02*
X002926667Y000270000D01*
X002926667Y000410000D02*
X003013333Y000410000D01*
X002926667Y000343333D02*
X002980000Y000343333D01*
X002926667Y000270000D02*
X003013333Y000270000D01*
X003053333Y000410000D02*
X003053333Y000270000D01*
X003053333Y000410000D02*
X003100000Y000410000D01*
X003120000Y000403333D01*
X003133333Y000390000D01*
X003140000Y000376667D01*
X003146667Y000356667D01*
X003146667Y000323333D01*
X003140000Y000303333D01*
X003133333Y000290000D01*
X003120000Y000276667D01*
X003100000Y000270000D01*
X003053333Y000270000D01*
X003253333Y000410000D02*
X003186667Y000316667D01*
X003286667Y000316667D01*
X003253333Y000410000D02*
X003253333Y000270000D01*
X004316667Y000410000D02*
X004316667Y000270000D01*
X004396667Y000270000D01*
X004430000Y000410000D02*
X004430000Y000270000D01*
X004430000Y000410000D02*
X004516667Y000410000D01*
X004430000Y000343333D02*
X004483333Y000343333D01*
X004430000Y000270000D02*
X004516667Y000270000D01*
X004556667Y000410000D02*
X004556667Y000270000D01*
X004556667Y000410000D02*
X004603333Y000410000D01*
X004623333Y000403333D01*
X004636667Y000390000D01*
X004643333Y000376667D01*
X004650000Y000356667D01*
X004650000Y000323333D01*
X004643333Y000303333D01*
X004636667Y000290000D01*
X004623333Y000276667D01*
X004603333Y000270000D01*
X004556667Y000270000D01*
X004770000Y000410000D02*
X004703333Y000410000D01*
X004696667Y000350000D01*
X004703333Y000356667D01*
X004723333Y000363333D01*
X004743333Y000363333D01*
X004763333Y000356667D01*
X004776667Y000343333D01*
X004783333Y000323333D01*
X004783333Y000310000D01*
X004776667Y000290000D01*
X004763333Y000276667D01*
X004743333Y000270000D01*
X004723333Y000270000D01*
X004703333Y000276667D01*
X004696667Y000283333D01*
X004690000Y000296667D01*
X002779048Y003820000D02*
X002702857Y003820000D01*
X002695238Y003751429D01*
X002702857Y003759048D01*
X002725714Y003766667D01*
X002748571Y003766667D01*
X002771429Y003759048D01*
X002786667Y003743810D01*
X002794286Y003720952D01*
X002794286Y003705714D01*
X002786667Y003682857D01*
X002771429Y003667619D01*
X002748571Y003660000D01*
X002725714Y003660000D01*
X002702857Y003667619D01*
X002695238Y003675238D01*
X002687619Y003690476D01*
X002840000Y003766667D02*
X002923810Y003660000D01*
X002923810Y003766667D02*
X002840000Y003660000D01*
X003137143Y003820000D02*
X003121905Y003812381D01*
X003106667Y003797143D01*
X003099048Y003781905D01*
X003091429Y003759048D01*
X003091429Y003720952D01*
X003099048Y003698095D01*
X003106667Y003682857D01*
X003121905Y003667619D01*
X003137143Y003660000D01*
X003167619Y003660000D01*
X003182857Y003667619D01*
X003198095Y003682857D01*
X003205714Y003698095D01*
X003213333Y003720952D01*
X003213333Y003759048D01*
X003205714Y003781905D01*
X003198095Y003797143D01*
X003182857Y003812381D01*
X003167619Y003820000D01*
X003137143Y003820000D01*
X003365714Y003797143D02*
X003350476Y003812381D01*
X003327619Y003820000D01*
X003297143Y003820000D01*
X003274286Y003812381D01*
X003259048Y003797143D01*
X003259048Y003781905D01*
X003266667Y003766667D01*
X003274286Y003759048D01*
X003289524Y003751429D01*
X003335238Y003736190D01*
X003350476Y003728571D01*
X003358095Y003720952D01*
X003365714Y003705714D01*
X003365714Y003682857D01*
X003350476Y003667619D01*
X003327619Y003660000D01*
X003297143Y003660000D01*
X003274286Y003667619D01*
X003259048Y003682857D01*
X003419048Y003820000D02*
X003419048Y003660000D01*
X003510476Y003660000D01*
X003586667Y003820000D02*
X003571429Y003812381D01*
X003556190Y003797143D01*
X003548571Y003781905D01*
X003540952Y003759048D01*
X003540952Y003720952D01*
X003548571Y003698095D01*
X003556190Y003682857D01*
X003571429Y003667619D01*
X003586667Y003660000D01*
X003617143Y003660000D01*
X003632381Y003667619D01*
X003647619Y003682857D01*
X003655238Y003698095D01*
X003662857Y003720952D01*
X003662857Y003759048D01*
X003655238Y003781905D01*
X003647619Y003797143D01*
X003632381Y003812381D01*
X003617143Y003820000D01*
X003586667Y003820000D01*
X003716190Y003820000D02*
X003716190Y003660000D01*
X003716190Y003820000D02*
X003822857Y003660000D01*
X003822857Y003820000D02*
X003822857Y003660000D01*
X004226667Y003820000D02*
X004150476Y003660000D01*
X004120000Y003820000D02*
X004226667Y003820000D01*
X004318095Y003820000D02*
X004295238Y003812381D01*
X004280000Y003789524D01*
X004272381Y003751429D01*
X004272381Y003728571D01*
X004280000Y003690476D01*
X004295238Y003667619D01*
X004318095Y003660000D01*
X004333333Y003660000D01*
X004356190Y003667619D01*
X004371429Y003690476D01*
X004379048Y003728571D01*
X004379048Y003751429D01*
X004371429Y003789524D01*
X004356190Y003812381D01*
X004333333Y003820000D01*
X004318095Y003820000D01*
X004470476Y003820000D02*
X004447619Y003812381D01*
X004432381Y003789524D01*
X004424762Y003751429D01*
X004424762Y003728571D01*
X004432381Y003690476D01*
X004447619Y003667619D01*
X004470476Y003660000D01*
X004485714Y003660000D01*
X004508571Y003667619D01*
X004523810Y003690476D01*
X004531429Y003728571D01*
X004531429Y003751429D01*
X004523810Y003789524D01*
X004508571Y003812381D01*
X004485714Y003820000D01*
X004470476Y003820000D01*
X004584762Y003766667D02*
X004584762Y003660000D01*
X004584762Y003736190D02*
X004607619Y003759048D01*
X004622857Y003766667D01*
X004645714Y003766667D01*
X004660952Y003759048D01*
X004668571Y003736190D01*
X004668571Y003660000D01*
X004668571Y003736190D02*
X004691429Y003759048D01*
X004706667Y003766667D01*
X004729524Y003766667D01*
X004744762Y003759048D01*
X004752381Y003736190D01*
X004752381Y003660000D01*
X004851429Y003820000D02*
X004790476Y003660000D01*
X004851429Y003820000D02*
X004912381Y003660000D01*
X004813333Y003713333D02*
X004889524Y003713333D01*
M02*