G04 Gerber file generated by Gerbonara*
%MOMM*%
%FSLAX45Y45*%
%IPPOS*%
G75
%LPD*%
%ADD10R,0.55X2.8*%
%ADD11R,1.0X2.8*%
%ADD12R,5.0X4.0*%
%ADD13C,2.0*%
D10*
X002187500Y002800000D03*
D11*
X002300000Y002800000D03*
D10*
X002412500Y002800000D03*
X003687500Y002800000D03*
D11*
X003800000Y002800000D03*
D10*
X003912500Y002800000D03*
X005187500Y002800000D03*
D11*
X005300000Y002800000D03*
D10*
X005412500Y002800000D03*
X002937500Y001200000D03*
D11*
X003050000Y001200000D03*
D10*
X003162500Y001200000D03*
X004437500Y001200000D03*
D11*
X004550000Y001200000D03*
D10*
X004662500Y001200000D03*
D12*
X000900000Y002800000D03*
X006700000Y002800000D03*
X000900000Y001200000D03*
X006700000Y001200000D03*
D13*
X000900000Y002800000D02*
X002115000Y002800000D01*
X002485000Y002800000D02*
X003615000Y002800000D01*
X003985000Y002800000D02*
X005115000Y002800000D01*
X005485000Y002800000D02*
X006700000Y002800000D01*
X000900000Y001200000D02*
X002865000Y001200000D01*
X003235000Y001200000D02*
X004365000Y001200000D01*
X004735000Y001200000D02*
X006700000Y001200000D01*
G36*
G01**
X002700000Y002980000D02*
X002700000Y003450000D01*
X001900000Y003450000D01*
X001900000Y002980000D01*
X002250000Y002980000D01*
X002250000Y002620000D01*
X001900000Y002620000D01*
X001900000Y002150000D01*
X002700000Y002150000D01*
X002700000Y002620000D01*
X002350000Y002620000D01*
X002350000Y002980000D01*
X002350000Y002980000D01*
X002700000Y002980000D01*
G37*
G36*
G01**
X004200000Y002980000D02*
X004200000Y003450000D01*
X003400000Y003450000D01*
X003400000Y002980000D01*
X003750000Y002980000D01*
X003750000Y002620000D01*
X003400000Y002620000D01*
X003400000Y002150000D01*
X004200000Y002150000D01*
X004200000Y002620000D01*
X003850000Y002620000D01*
X003850000Y002980000D01*
X003850000Y002980000D01*
X004200000Y002980000D01*
G37*
G36*
G01**
X005700000Y002980000D02*
X005700000Y003450000D01*
X004900000Y003450000D01*
X004900000Y002980000D01*
X005250000Y002980000D01*
X005250000Y002620000D01*
X004900000Y002620000D01*
X004900000Y002150000D01*
X005700000Y002150000D01*
X005700000Y002620000D01*
X005350000Y002620000D01*
X005350000Y002980000D01*
X005350000Y002980000D01*
X005700000Y002980000D01*
G37*
G36*
G01**
X003450000Y001380000D02*
X003450000Y001850000D01*
X002650000Y001850000D01*
X002650000Y001380000D01*
X003000000Y001380000D01*
X003000000Y001020000D01*
X002650000Y001020000D01*
X002650000Y000550000D01*
X003450000Y000550000D01*
X003450000Y001020000D01*
X003100000Y001020000D01*
X003100000Y001380000D01*
X003100000Y001380000D01*
X003450000Y001380000D01*
G37*
G36*
G01**
X004950000Y001380000D02*
X004950000Y001850000D01*
X004150000Y001850000D01*
X004150000Y001380000D01*
X004500000Y001380000D01*
X004500000Y001020000D01*
X004150000Y001020000D01*
X004150000Y000550000D01*
X004950000Y000550000D01*
X004950000Y001020000D01*
X004600000Y001020000D01*
X004600000Y001380000D01*
X004600000Y001380000D01*
X004950000Y001380000D01*
G37*
M02*