G04 Gerber file generated by Gerbonara*
%MOMM*%
%FSLAX45Y45*%
%IPPOS*%
G75
%LPD*%
%ADD10C,0.1*%
D10*
X007600000Y003700000D02*
X007599358Y003719621D01*
X007597433Y003739158D01*
X007594236Y003758527D01*
X007589778Y003777646D01*
X007584079Y003796432D01*
X007577164Y003814805D01*
X007569062Y003832687D01*
X007559808Y003850000D01*
X007549441Y003866671D01*
X007538006Y003882628D01*
X007525552Y003897804D01*
X007512132Y003912132D01*
X007497804Y003925552D01*
X007482628Y003938006D01*
X007466671Y003949441D01*
X007450000Y003959808D01*
X007432687Y003969062D01*
X007414805Y003977164D01*
X007396432Y003984079D01*
X007377646Y003989778D01*
X007358527Y003994236D01*
X007339158Y003997433D01*
X007319621Y003999358D01*
X007300000Y004000000D01*
X000300000Y004000000D01*
X000280379Y003999358D01*
X000260842Y003997433D01*
X000241473Y003994236D01*
X000222354Y003989778D01*
X000203568Y003984079D01*
X000185195Y003977164D01*
X000167313Y003969062D01*
X000150000Y003959808D01*
X000133329Y003949441D01*
X000117372Y003938006D01*
X000102196Y003925552D01*
X000087868Y003912132D01*
X000074448Y003897804D01*
X000061994Y003882628D01*
X000050559Y003866671D01*
X000040192Y003850000D01*
X000030938Y003832687D01*
X000022836Y003814805D01*
X000015921Y003796432D01*
X000010222Y003777646D01*
X000005764Y003758527D01*
X000002567Y003739158D01*
X000000642Y003719621D01*
X0Y003700000D01*
X0Y000300000D01*
X000000642Y000280379D01*
X000002567Y000260842D01*
X000005764Y000241473D01*
X000010222Y000222354D01*
X000015921Y000203568D01*
X000022836Y000185195D01*
X000030938Y000167313D01*
X000040192Y000150000D01*
X000050559Y000133329D01*
X000061994Y000117372D01*
X000074448Y000102196D01*
X000087868Y000087868D01*
X000102196Y000074448D01*
X000117372Y000061994D01*
X000133329Y000050559D01*
X000150000Y000040192D01*
X000167313Y000030938D01*
X000185195Y000022836D01*
X000203568Y000015921D01*
X000222354Y000010222D01*
X000241473Y000005764D01*
X000260842Y000002567D01*
X000280379Y000000642D01*
X000300000Y0D01*
X007300000Y0D01*
X007319621Y000000642D01*
X007339158Y000002567D01*
X007358527Y000005764D01*
X007377646Y000010222D01*
X007396432Y000015921D01*
X007414805Y000022836D01*
X007432687Y000030938D01*
X007450000Y000040192D01*
X007466671Y000050559D01*
X007482628Y000061994D01*
X007497804Y000074448D01*
X007512132Y000087868D01*
X007525552Y000102196D01*
X007538006Y000117372D01*
X007549441Y000133329D01*
X007559808Y000150000D01*
X007569062Y000167313D01*
X007577164Y000185195D01*
X007584079Y000203568D01*
X007589778Y000222354D01*
X007594236Y000241473D01*
X007597433Y000260842D01*
X007599358Y000280379D01*
X007600000Y000300000D01*
X007600000Y003700000D01*
M02*