G04 Gerber file generated by Gerbonara*
%MOMM*%
%FSLAX45Y45*%
%IPPOS*%
G75
%LPD*%
%ADD10C,0.6*%
G36*
G01**
X006964192Y003443995D02*
X006960963Y003454640D01*
X006957045Y003465050D01*
X006952454Y003475182D01*
X006947210Y003484992D01*
X006941336Y003494438D01*
X006934857Y003503480D01*
X006927801Y003512078D01*
X006920197Y003520197D01*
X006912078Y003527801D01*
X006903480Y003534857D01*
X006894438Y003541336D01*
X006884992Y003547210D01*
X006875182Y003552454D01*
X006865050Y003557045D01*
X006854640Y003560963D01*
X006843995Y003564192D01*
X006833162Y003566718D01*
X006822187Y003568530D01*
X006811117Y003569620D01*
X006799509Y003570000D01*
X000200491Y003570000D01*
X000188883Y003569620D01*
X000177813Y003568530D01*
X000166838Y003566718D01*
X000156005Y003564192D01*
X000145360Y003560963D01*
X000134950Y003557045D01*
X000124818Y003552454D01*
X000115008Y003547210D01*
X000105562Y003541336D01*
X000096520Y003534857D01*
X000087922Y003527801D01*
X000079803Y003520197D01*
X000072199Y003512078D01*
X000065143Y003503480D01*
X000058664Y003494438D01*
X000052790Y003484992D01*
X000047546Y003475182D01*
X000042955Y003465050D01*
X000039037Y003454640D01*
X000035808Y003443995D01*
X000033282Y003433162D01*
X000031470Y003422187D01*
X000030380Y003411117D01*
X000030000Y003399509D01*
X000030000Y000200491D01*
X000030380Y000188883D01*
X000031470Y000177813D01*
X000033282Y000166838D01*
X000035808Y000156005D01*
X000039037Y000145360D01*
X000042955Y000134950D01*
X000047546Y000124818D01*
X000052790Y000115008D01*
X000058664Y000105562D01*
X000065143Y000096520D01*
X000072199Y000087922D01*
X000079803Y000079803D01*
X000087922Y000072199D01*
X000096520Y000065143D01*
X000105562Y000058664D01*
X000115008Y000052790D01*
X000124818Y000047546D01*
X000134950Y000042955D01*
X000145360Y000039037D01*
X000156005Y000035808D01*
X000166838Y000033282D01*
X000177813Y000031470D01*
X000188883Y000030380D01*
X000200491Y000030000D01*
X006799509Y000030000D01*
X006811117Y000030380D01*
X006822187Y000031470D01*
X006833162Y000033282D01*
X006843995Y000035808D01*
X006854640Y000039037D01*
X006865050Y000042955D01*
X006875182Y000047546D01*
X006884992Y000052790D01*
X006894438Y000058664D01*
X006903480Y000065143D01*
X006912078Y000072199D01*
X006920197Y000079803D01*
X006927801Y000087922D01*
X006934857Y000096520D01*
X006941336Y000105562D01*
X006947210Y000115008D01*
X006952454Y000124818D01*
X006957045Y000134950D01*
X006960963Y000145360D01*
X006964192Y000156005D01*
X006966718Y000166838D01*
X006968530Y000177813D01*
X006969620Y000188883D01*
X006970000Y000200491D01*
X006970000Y003399509D01*
X006969620Y003411117D01*
X006968530Y003422187D01*
X006966718Y003433162D01*
X006966718Y003433162D01*
X006964192Y003443995D01*
G37*
%LPC*%
G36*
G01**
X000587963Y003190971D02*
X000586258Y003180641D01*
X000585619Y003177432D01*
X000583242Y003167235D01*
X000582395Y003164075D01*
X000579356Y003154055D01*
X000578304Y003150957D01*
X000574616Y003141158D01*
X000573364Y003138135D01*
X000569043Y003128598D01*
X000567596Y003125664D01*
X000562660Y003116430D01*
X000561024Y003113597D01*
X000555495Y003104705D01*
X000553677Y003101985D01*
X000547579Y003093474D01*
X000545587Y003090879D01*
X000538945Y003082785D01*
X000536788Y003080325D01*
X000529630Y003072683D01*
X000527317Y003070370D01*
X000519675Y003063212D01*
X000517215Y003061055D01*
X000509121Y003054413D01*
X000506526Y003052421D01*
X000498015Y003046323D01*
X000495295Y003044505D01*
X000486403Y003038976D01*
X000483570Y003037340D01*
X000474336Y003032404D01*
X000471402Y003030957D01*
X000461865Y003026636D01*
X000458842Y003025384D01*
X000449043Y003021696D01*
X000445945Y003020644D01*
X000435925Y003017605D01*
X000432765Y003016758D01*
X000422568Y003014381D01*
X000419359Y003013742D01*
X000409029Y003012037D01*
X000405785Y003011610D01*
X000395365Y003010583D01*
X000392100Y003010369D01*
X000381636Y003010027D01*
X000378364Y003010027D01*
X000367900Y003010369D01*
X000364635Y003010583D01*
X000354215Y003011610D01*
X000350971Y003012037D01*
X000340641Y003013742D01*
X000337432Y003014381D01*
X000327235Y003016758D01*
X000324075Y003017605D01*
X000314055Y003020644D01*
X000310957Y003021696D01*
X000301158Y003025384D01*
X000298135Y003026636D01*
X000288598Y003030957D01*
X000285664Y003032404D01*
X000276430Y003037340D01*
X000273597Y003038976D01*
X000264705Y003044505D01*
X000261985Y003046323D01*
X000253474Y003052421D01*
X000250879Y003054413D01*
X000242785Y003061055D01*
X000240325Y003063212D01*
X000232683Y003070370D01*
X000230370Y003072683D01*
X000223212Y003080325D01*
X000221055Y003082785D01*
X000214413Y003090879D01*
X000212421Y003093474D01*
X000206323Y003101985D01*
X000204505Y003104705D01*
X000198976Y003113597D01*
X000197340Y003116430D01*
X000192404Y003125664D01*
X000190957Y003128598D01*
X000186636Y003138135D01*
X000185384Y003141158D01*
X000181696Y003150957D01*
X000180644Y003154055D01*
X000177605Y003164075D01*
X000176758Y003167235D01*
X000174381Y003177432D01*
X000173742Y003180641D01*
X000172037Y003190971D01*
X000171610Y003194215D01*
X000170583Y003204635D01*
X000170369Y003207900D01*
X000170027Y003218364D01*
X000170027Y003221636D01*
X000170369Y003232100D01*
X000170583Y003235365D01*
X000171610Y003245785D01*
X000172037Y003249029D01*
X000173742Y003259359D01*
X000174381Y003262568D01*
X000176758Y003272765D01*
X000177605Y003275925D01*
X000180644Y003285945D01*
X000181696Y003289043D01*
X000185384Y003298842D01*
X000186636Y003301865D01*
X000190957Y003311402D01*
X000192404Y003314336D01*
X000197340Y003323570D01*
X000198976Y003326403D01*
X000204505Y003335295D01*
X000206323Y003338015D01*
X000212421Y003346526D01*
X000214413Y003349121D01*
X000221055Y003357215D01*
X000223212Y003359675D01*
X000230370Y003367317D01*
X000232683Y003369630D01*
X000240325Y003376788D01*
X000242785Y003378945D01*
X000250879Y003385587D01*
X000253474Y003387579D01*
X000261985Y003393677D01*
X000264705Y003395495D01*
X000273597Y003401024D01*
X000276430Y003402660D01*
X000285664Y003407596D01*
X000288598Y003409043D01*
X000298135Y003413364D01*
X000301158Y003414616D01*
X000310957Y003418304D01*
X000314055Y003419356D01*
X000324075Y003422395D01*
X000327235Y003423242D01*
X000337432Y003425619D01*
X000340641Y003426258D01*
X000350971Y003427963D01*
X000354215Y003428390D01*
X000364635Y003429417D01*
X000367900Y003429631D01*
X000378364Y003429973D01*
X000381636Y003429973D01*
X000392100Y003429631D01*
X000395365Y003429417D01*
X000405785Y003428390D01*
X000409029Y003427963D01*
X000419359Y003426258D01*
X000422568Y003425619D01*
X000432765Y003423242D01*
X000435925Y003422395D01*
X000445945Y003419356D01*
X000449043Y003418304D01*
X000458842Y003414616D01*
X000461865Y003413364D01*
X000471402Y003409043D01*
X000474336Y003407596D01*
X000483570Y003402660D01*
X000486403Y003401024D01*
X000495295Y003395495D01*
X000498015Y003393677D01*
X000506526Y003387579D01*
X000509121Y003385587D01*
X000517215Y003378945D01*
X000519675Y003376788D01*
X000527317Y003369630D01*
X000529630Y003367317D01*
X000536788Y003359675D01*
X000538945Y003357215D01*
X000545587Y003349121D01*
X000547579Y003346526D01*
X000553677Y003338015D01*
X000555495Y003335295D01*
X000561024Y003326403D01*
X000562660Y003323570D01*
X000567596Y003314336D01*
X000569043Y003311402D01*
X000573364Y003301865D01*
X000574616Y003298842D01*
X000578304Y003289043D01*
X000579356Y003285945D01*
X000582395Y003275925D01*
X000583242Y003272765D01*
X000585619Y003262568D01*
X000586258Y003259359D01*
X000587963Y003249029D01*
X000588390Y003245785D01*
X000589417Y003235365D01*
X000589631Y003232100D01*
X000589973Y003221636D01*
X000589973Y003218364D01*
X000589631Y003207900D01*
X000589417Y003204635D01*
X000588390Y003194215D01*
X000588390Y003194215D01*
X000587963Y003190971D01*
G37*
G36*
G01**
X006828390Y003194215D02*
X006827963Y003190971D01*
X006826258Y003180641D01*
X006825619Y003177432D01*
X006823242Y003167235D01*
X006822395Y003164075D01*
X006819356Y003154055D01*
X006818304Y003150957D01*
X006814616Y003141158D01*
X006813364Y003138135D01*
X006809043Y003128598D01*
X006807596Y003125664D01*
X006802660Y003116430D01*
X006801024Y003113597D01*
X006795495Y003104705D01*
X006793677Y003101985D01*
X006787579Y003093474D01*
X006785587Y003090879D01*
X006778945Y003082785D01*
X006776788Y003080325D01*
X006769630Y003072683D01*
X006767317Y003070370D01*
X006759675Y003063212D01*
X006757215Y003061055D01*
X006749121Y003054413D01*
X006746526Y003052421D01*
X006738015Y003046323D01*
X006735295Y003044505D01*
X006726403Y003038976D01*
X006723570Y003037340D01*
X006714336Y003032404D01*
X006711402Y003030957D01*
X006701865Y003026636D01*
X006698842Y003025384D01*
X006689043Y003021696D01*
X006685945Y003020644D01*
X006675925Y003017605D01*
X006672765Y003016758D01*
X006662568Y003014381D01*
X006659359Y003013742D01*
X006649029Y003012037D01*
X006645785Y003011610D01*
X006635365Y003010583D01*
X006632100Y003010369D01*
X006621636Y003010027D01*
X006618364Y003010027D01*
X006607900Y003010369D01*
X006604635Y003010583D01*
X006594215Y003011610D01*
X006590971Y003012037D01*
X006580641Y003013742D01*
X006577432Y003014381D01*
X006567235Y003016758D01*
X006564075Y003017605D01*
X006554055Y003020644D01*
X006550957Y003021696D01*
X006541158Y003025384D01*
X006538135Y003026636D01*
X006528598Y003030957D01*
X006525664Y003032404D01*
X006516430Y003037340D01*
X006513597Y003038976D01*
X006504705Y003044505D01*
X006501985Y003046323D01*
X006493474Y003052421D01*
X006490879Y003054413D01*
X006482785Y003061055D01*
X006480325Y003063212D01*
X006472683Y003070370D01*
X006470370Y003072683D01*
X006463212Y003080325D01*
X006461055Y003082785D01*
X006454413Y003090879D01*
X006452421Y003093474D01*
X006446323Y003101985D01*
X006444505Y003104705D01*
X006438976Y003113597D01*
X006437340Y003116430D01*
X006432404Y003125664D01*
X006430957Y003128598D01*
X006426636Y003138135D01*
X006425384Y003141158D01*
X006421696Y003150957D01*
X006420644Y003154055D01*
X006417605Y003164075D01*
X006416758Y003167235D01*
X006414381Y003177432D01*
X006413742Y003180641D01*
X006412037Y003190971D01*
X006411610Y003194215D01*
X006410583Y003204635D01*
X006410369Y003207900D01*
X006410027Y003218364D01*
X006410027Y003221636D01*
X006410369Y003232100D01*
X006410583Y003235365D01*
X006411610Y003245785D01*
X006412037Y003249029D01*
X006413742Y003259359D01*
X006414381Y003262568D01*
X006416758Y003272765D01*
X006417605Y003275925D01*
X006420644Y003285945D01*
X006421696Y003289043D01*
X006425384Y003298842D01*
X006426636Y003301865D01*
X006430957Y003311402D01*
X006432404Y003314336D01*
X006437340Y003323570D01*
X006438976Y003326403D01*
X006444505Y003335295D01*
X006446323Y003338015D01*
X006452421Y003346526D01*
X006454413Y003349121D01*
X006461055Y003357215D01*
X006463212Y003359675D01*
X006470370Y003367317D01*
X006472683Y003369630D01*
X006480325Y003376788D01*
X006482785Y003378945D01*
X006490879Y003385587D01*
X006493474Y003387579D01*
X006501985Y003393677D01*
X006504705Y003395495D01*
X006513597Y003401024D01*
X006516430Y003402660D01*
X006525664Y003407596D01*
X006528598Y003409043D01*
X006538135Y003413364D01*
X006541158Y003414616D01*
X006550957Y003418304D01*
X006554055Y003419356D01*
X006564075Y003422395D01*
X006567235Y003423242D01*
X006577432Y003425619D01*
X006580641Y003426258D01*
X006590971Y003427963D01*
X006594215Y003428390D01*
X006604635Y003429417D01*
X006607900Y003429631D01*
X006618364Y003429973D01*
X006621636Y003429973D01*
X006632100Y003429631D01*
X006635365Y003429417D01*
X006645785Y003428390D01*
X006649029Y003427963D01*
X006659359Y003426258D01*
X006662568Y003425619D01*
X006672765Y003423242D01*
X006675925Y003422395D01*
X006685945Y003419356D01*
X006689043Y003418304D01*
X006698842Y003414616D01*
X006701865Y003413364D01*
X006711402Y003409043D01*
X006714336Y003407596D01*
X006723570Y003402660D01*
X006726403Y003401024D01*
X006735295Y003395495D01*
X006738015Y003393677D01*
X006746526Y003387579D01*
X006749121Y003385587D01*
X006757215Y003378945D01*
X006759675Y003376788D01*
X006767317Y003369630D01*
X006769630Y003367317D01*
X006776788Y003359675D01*
X006778945Y003357215D01*
X006785587Y003349121D01*
X006787579Y003346526D01*
X006793677Y003338015D01*
X006795495Y003335295D01*
X006801024Y003326403D01*
X006802660Y003323570D01*
X006807596Y003314336D01*
X006809043Y003311402D01*
X006813364Y003301865D01*
X006814616Y003298842D01*
X006818304Y003289043D01*
X006819356Y003285945D01*
X006822395Y003275925D01*
X006823242Y003272765D01*
X006825619Y003262568D01*
X006826258Y003259359D01*
X006827963Y003249029D01*
X006828390Y003245785D01*
X006829417Y003235365D01*
X006829631Y003232100D01*
X006829973Y003221636D01*
X006829973Y003218364D01*
X006829631Y003207900D01*
X006829417Y003204635D01*
X006829417Y003204635D01*
X006828390Y003194215D01*
G37*
G36*
G01**
X000589417Y000364635D02*
X000588390Y000354215D01*
X000587963Y000350971D01*
X000586258Y000340641D01*
X000585619Y000337432D01*
X000583242Y000327235D01*
X000582395Y000324075D01*
X000579356Y000314055D01*
X000578304Y000310957D01*
X000574616Y000301158D01*
X000573364Y000298135D01*
X000569043Y000288598D01*
X000567596Y000285664D01*
X000562660Y000276430D01*
X000561024Y000273597D01*
X000555495Y000264705D01*
X000553677Y000261985D01*
X000547579Y000253474D01*
X000545587Y000250879D01*
X000538945Y000242785D01*
X000536788Y000240325D01*
X000529630Y000232683D01*
X000527317Y000230370D01*
X000519675Y000223212D01*
X000517215Y000221055D01*
X000509121Y000214413D01*
X000506526Y000212421D01*
X000498015Y000206323D01*
X000495295Y000204505D01*
X000486403Y000198976D01*
X000483570Y000197340D01*
X000474336Y000192404D01*
X000471402Y000190957D01*
X000461865Y000186636D01*
X000458842Y000185384D01*
X000449043Y000181696D01*
X000445945Y000180644D01*
X000435925Y000177605D01*
X000432765Y000176758D01*
X000422568Y000174381D01*
X000419359Y000173742D01*
X000409029Y000172037D01*
X000405785Y000171610D01*
X000395365Y000170583D01*
X000392100Y000170369D01*
X000381636Y000170027D01*
X000378364Y000170027D01*
X000367900Y000170369D01*
X000364635Y000170583D01*
X000354215Y000171610D01*
X000350971Y000172037D01*
X000340641Y000173742D01*
X000337432Y000174381D01*
X000327235Y000176758D01*
X000324075Y000177605D01*
X000314055Y000180644D01*
X000310957Y000181696D01*
X000301158Y000185384D01*
X000298135Y000186636D01*
X000288598Y000190957D01*
X000285664Y000192404D01*
X000276430Y000197340D01*
X000273597Y000198976D01*
X000264705Y000204505D01*
X000261985Y000206323D01*
X000253474Y000212421D01*
X000250879Y000214413D01*
X000242785Y000221055D01*
X000240325Y000223212D01*
X000232683Y000230370D01*
X000230370Y000232683D01*
X000223212Y000240325D01*
X000221055Y000242785D01*
X000214413Y000250879D01*
X000212421Y000253474D01*
X000206323Y000261985D01*
X000204505Y000264705D01*
X000198976Y000273597D01*
X000197340Y000276430D01*
X000192404Y000285664D01*
X000190957Y000288598D01*
X000186636Y000298135D01*
X000185384Y000301158D01*
X000181696Y000310957D01*
X000180644Y000314055D01*
X000177605Y000324075D01*
X000176758Y000327235D01*
X000174381Y000337432D01*
X000173742Y000340641D01*
X000172037Y000350971D01*
X000171610Y000354215D01*
X000170583Y000364635D01*
X000170369Y000367900D01*
X000170027Y000378364D01*
X000170027Y000381636D01*
X000170369Y000392100D01*
X000170583Y000395365D01*
X000171610Y000405785D01*
X000172037Y000409029D01*
X000173742Y000419359D01*
X000174381Y000422568D01*
X000176758Y000432765D01*
X000177605Y000435925D01*
X000180644Y000445945D01*
X000181696Y000449043D01*
X000185384Y000458842D01*
X000186636Y000461865D01*
X000190957Y000471402D01*
X000192404Y000474336D01*
X000197340Y000483570D01*
X000198976Y000486403D01*
X000204505Y000495295D01*
X000206323Y000498015D01*
X000212421Y000506526D01*
X000214413Y000509121D01*
X000221055Y000517215D01*
X000223212Y000519675D01*
X000230370Y000527317D01*
X000232683Y000529630D01*
X000240325Y000536788D01*
X000242785Y000538945D01*
X000250879Y000545587D01*
X000253474Y000547579D01*
X000261985Y000553677D01*
X000264705Y000555495D01*
X000273597Y000561024D01*
X000276430Y000562660D01*
X000285664Y000567596D01*
X000288598Y000569043D01*
X000298135Y000573364D01*
X000301158Y000574616D01*
X000310957Y000578304D01*
X000314055Y000579356D01*
X000324075Y000582395D01*
X000327235Y000583242D01*
X000337432Y000585619D01*
X000340641Y000586258D01*
X000350971Y000587963D01*
X000354215Y000588390D01*
X000364635Y000589417D01*
X000367900Y000589631D01*
X000378364Y000589973D01*
X000381636Y000589973D01*
X000392100Y000589631D01*
X000395365Y000589417D01*
X000405785Y000588390D01*
X000409029Y000587963D01*
X000419359Y000586258D01*
X000422568Y000585619D01*
X000432765Y000583242D01*
X000435925Y000582395D01*
X000445945Y000579356D01*
X000449043Y000578304D01*
X000458842Y000574616D01*
X000461865Y000573364D01*
X000471402Y000569043D01*
X000474336Y000567596D01*
X000483570Y000562660D01*
X000486403Y000561024D01*
X000495295Y000555495D01*
X000498015Y000553677D01*
X000506526Y000547579D01*
X000509121Y000545587D01*
X000517215Y000538945D01*
X000519675Y000536788D01*
X000527317Y000529630D01*
X000529630Y000527317D01*
X000536788Y000519675D01*
X000538945Y000517215D01*
X000545587Y000509121D01*
X000547579Y000506526D01*
X000553677Y000498015D01*
X000555495Y000495295D01*
X000561024Y000486403D01*
X000562660Y000483570D01*
X000567596Y000474336D01*
X000569043Y000471402D01*
X000573364Y000461865D01*
X000574616Y000458842D01*
X000578304Y000449043D01*
X000579356Y000445945D01*
X000582395Y000435925D01*
X000583242Y000432765D01*
X000585619Y000422568D01*
X000586258Y000419359D01*
X000587963Y000409029D01*
X000588390Y000405785D01*
X000589417Y000395365D01*
X000589631Y000392100D01*
X000589973Y000381636D01*
X000589973Y000378364D01*
X000589631Y000367900D01*
X000589631Y000367900D01*
X000589417Y000364635D01*
G37*
G36*
G01**
X006829631Y000367900D02*
X006829417Y000364635D01*
X006828390Y000354215D01*
X006827963Y000350971D01*
X006826258Y000340641D01*
X006825619Y000337432D01*
X006823242Y000327235D01*
X006822395Y000324075D01*
X006819356Y000314055D01*
X006818304Y000310957D01*
X006814616Y000301158D01*
X006813364Y000298135D01*
X006809043Y000288598D01*
X006807596Y000285664D01*
X006802660Y000276430D01*
X006801024Y000273597D01*
X006795495Y000264705D01*
X006793677Y000261985D01*
X006787579Y000253474D01*
X006785587Y000250879D01*
X006778945Y000242785D01*
X006776788Y000240325D01*
X006769630Y000232683D01*
X006767317Y000230370D01*
X006759675Y000223212D01*
X006757215Y000221055D01*
X006749121Y000214413D01*
X006746526Y000212421D01*
X006738015Y000206323D01*
X006735295Y000204505D01*
X006726403Y000198976D01*
X006723570Y000197340D01*
X006714336Y000192404D01*
X006711402Y000190957D01*
X006701865Y000186636D01*
X006698842Y000185384D01*
X006689043Y000181696D01*
X006685945Y000180644D01*
X006675925Y000177605D01*
X006672765Y000176758D01*
X006662568Y000174381D01*
X006659359Y000173742D01*
X006649029Y000172037D01*
X006645785Y000171610D01*
X006635365Y000170583D01*
X006632100Y000170369D01*
X006621636Y000170027D01*
X006618364Y000170027D01*
X006607900Y000170369D01*
X006604635Y000170583D01*
X006594215Y000171610D01*
X006590971Y000172037D01*
X006580641Y000173742D01*
X006577432Y000174381D01*
X006567235Y000176758D01*
X006564075Y000177605D01*
X006554055Y000180644D01*
X006550957Y000181696D01*
X006541158Y000185384D01*
X006538135Y000186636D01*
X006528598Y000190957D01*
X006525664Y000192404D01*
X006516430Y000197340D01*
X006513597Y000198976D01*
X006504705Y000204505D01*
X006501985Y000206323D01*
X006493474Y000212421D01*
X006490879Y000214413D01*
X006482785Y000221055D01*
X006480325Y000223212D01*
X006472683Y000230370D01*
X006470370Y000232683D01*
X006463212Y000240325D01*
X006461055Y000242785D01*
X006454413Y000250879D01*
X006452421Y000253474D01*
X006446323Y000261985D01*
X006444505Y000264705D01*
X006438976Y000273597D01*
X006437340Y000276430D01*
X006432404Y000285664D01*
X006430957Y000288598D01*
X006426636Y000298135D01*
X006425384Y000301158D01*
X006421696Y000310957D01*
X006420644Y000314055D01*
X006417605Y000324075D01*
X006416758Y000327235D01*
X006414381Y000337432D01*
X006413742Y000340641D01*
X006412037Y000350971D01*
X006411610Y000354215D01*
X006410583Y000364635D01*
X006410369Y000367900D01*
X006410027Y000378364D01*
X006410027Y000381636D01*
X006410369Y000392100D01*
X006410583Y000395365D01*
X006411610Y000405785D01*
X006412037Y000409029D01*
X006413742Y000419359D01*
X006414381Y000422568D01*
X006416758Y000432765D01*
X006417605Y000435925D01*
X006420644Y000445945D01*
X006421696Y000449043D01*
X006425384Y000458842D01*
X006426636Y000461865D01*
X006430957Y000471402D01*
X006432404Y000474336D01*
X006437340Y000483570D01*
X006438976Y000486403D01*
X006444505Y000495295D01*
X006446323Y000498015D01*
X006452421Y000506526D01*
X006454413Y000509121D01*
X006461055Y000517215D01*
X006463212Y000519675D01*
X006470370Y000527317D01*
X006472683Y000529630D01*
X006480325Y000536788D01*
X006482785Y000538945D01*
X006490879Y000545587D01*
X006493474Y000547579D01*
X006501985Y000553677D01*
X006504705Y000555495D01*
X006513597Y000561024D01*
X006516430Y000562660D01*
X006525664Y000567596D01*
X006528598Y000569043D01*
X006538135Y000573364D01*
X006541158Y000574616D01*
X006550957Y000578304D01*
X006554055Y000579356D01*
X006564075Y000582395D01*
X006567235Y000583242D01*
X006577432Y000585619D01*
X006580641Y000586258D01*
X006590971Y000587963D01*
X006594215Y000588390D01*
X006604635Y000589417D01*
X006607900Y000589631D01*
X006618364Y000589973D01*
X006621636Y000589973D01*
X006632100Y000589631D01*
X006635365Y000589417D01*
X006645785Y000588390D01*
X006649029Y000587963D01*
X006659359Y000586258D01*
X006662568Y000585619D01*
X006672765Y000583242D01*
X006675925Y000582395D01*
X006685945Y000579356D01*
X006689043Y000578304D01*
X006698842Y000574616D01*
X006701865Y000573364D01*
X006711402Y000569043D01*
X006714336Y000567596D01*
X006723570Y000562660D01*
X006726403Y000561024D01*
X006735295Y000555495D01*
X006738015Y000553677D01*
X006746526Y000547579D01*
X006749121Y000545587D01*
X006757215Y000538945D01*
X006759675Y000536788D01*
X006767317Y000529630D01*
X006769630Y000527317D01*
X006776788Y000519675D01*
X006778945Y000517215D01*
X006785587Y000509121D01*
X006787579Y000506526D01*
X006793677Y000498015D01*
X006795495Y000495295D01*
X006801024Y000486403D01*
X006802660Y000483570D01*
X006807596Y000474336D01*
X006809043Y000471402D01*
X006813364Y000461865D01*
X006814616Y000458842D01*
X006818304Y000449043D01*
X006819356Y000445945D01*
X006822395Y000435925D01*
X006823242Y000432765D01*
X006825619Y000422568D01*
X006826258Y000419359D01*
X006827963Y000409029D01*
X006828390Y000405785D01*
X006829417Y000395365D01*
X006829631Y000392100D01*
X006829973Y000381636D01*
X006829973Y000378364D01*
X006829973Y000378364D01*
X006829631Y000367900D01*
G37*
%LPD*%
D10*
X002700000Y002060000D03*
X002700000Y001340000D03*
X002000000Y001560000D03*
X005100000Y002060000D03*
X005100000Y001340000D03*
X004400000Y001560000D03*
X000550000Y000780000D03*
X000750000Y000780000D03*
X000950000Y000780000D03*
M02*